# xmcd
#
# Track frame offsets:
#	150
#	17750
#	30737
#	49392
#	65095
#	86125
#	104020
#	119815
#	136417
#	156607
#	175980
#	192810
#
# Disc length: 2841 seconds
#
# Revision: 12
# Processed by: cddbd v1.5.2PL0 Copyright (c) Steve Scherf et al.
# Submitted via: audiograbber 1.83.01
#
DISCID=b90b170c
DTITLE=Clint Black - Nothin' But The Taillights
DYEAR=1997
DGENRE=Country
TTITLE0=Nothin' But The Taillights
TTITLE1=That Something In My Life
TTITLE2=Our Kind Of Love
TTITLE3=Loosen Up My Strings
TTITLE4=Still Holding On
TTITLE5=Something That We Do
TTITLE6=The Shoes You're Wearing
TTITLE7=You Don't Need Me Now
TTITLE8=What I Feel Inside
TTITLE9=You Know It All
TTITLE10=Ode To Chet
TTITLE11=Bitter Side Of Sweet
EXTD=BMG Entertainment YEAR: 1997
EXTT0=
EXTT1=
EXTT2=
EXTT3=
EXTT4=
EXTT5=
EXTT6=
EXTT7=
EXTT8=
EXTT9=
EXTT10=
EXTT11=
PLAYORDER=
